<?xml version="1.0" standalone="no"?>
<!DOCTYPE svg PUBLIC "-//W3C//DTD SVG 1.1//EN" "http://www.w3.org/Graphics/SVG/1.1/DTD/svg11.dtd">
<svg width="107mm" height="72mm" viewBox="0 -72 107 72" xmlns="http://www.w3.org/2000/svg" version="1.1">
<title>OpenSCAD Model</title>
<path d="
M 5,-72 L 4.67297,-71.9893 L 4.34737,-71.9572 L 4.02454,-71.9039 L 3.7059,-71.8296 L 3.39279,-71.7346
 L 3.08658,-71.6194 L 2.78854,-71.4844 L 2.5,-71.3301 L 2.22214,-71.1573 L 1.95619,-70.9668 L 1.70326,-70.7592
 L 1.46446,-70.5355 L 1.2408,-70.2967 L 1.03322,-70.0438 L 0.842651,-69.7778 L 0.669861,-69.5 L 0.515625,-69.2114
 L 0.3806,-68.9134 L 0.265335,-68.6072 L 0.170364,-68.2941 L 0.0960693,-67.9754 L 0.0427704,-67.6526 L 0.0106964,-67.327
 L 0,-67 L 0,-29.65 L 1.5,-29.65 L 1.5,-31.45 L 1.50096,-31.4696 L 1.50384,-31.489
 L 1.50861,-31.5081 L 1.51523,-31.5265 L 1.52362,-31.5443 L 1.53371,-31.5611 L 1.5454,-31.5769 L 1.55858,-31.5914
 L 1.57312,-31.6046 L 1.58889,-31.6163 L 1.60572,-31.6264 L 1.62346,-31.6348 L 1.64194,-31.6414 L 1.66098,-31.6462
 L 1.6804,-31.649 L 1.7,-31.65 L 4.3,-31.65 L 4.3196,-31.649 L 4.33902,-31.6462 L 4.35806,-31.6414
 L 4.37654,-31.6348 L 4.39428,-31.6264 L 4.41111,-31.6163 L 4.42688,-31.6046 L 4.44142,-31.5914 L 4.4546,-31.5769
 L 4.46629,-31.5611 L 4.47638,-31.5443 L 4.48477,-31.5265 L 4.49139,-31.5081 L 4.49616,-31.489 L 4.49904,-31.4696
 L 4.5,-31.45 L 4.5,-29.65 L 4.7,-29.65 L 4.87643,-29.6413 L 4.89604,-29.6404 L 4.91545,-29.6375
 L 5.09018,-29.6116 L 5.10922,-29.6068 L 5.28056,-29.5639 L 5.29904,-29.5573 L 5.46536,-29.4978 L 5.62504,-29.4222
 L 5.64279,-29.4138 L 5.79431,-29.323 L 5.81114,-29.3129 L 5.82691,-29.3012 L 5.96878,-29.196 L 6.09967,-29.0774
 L 6.11421,-29.0642 L 6.1274,-29.0497 L 6.24602,-28.9188 L 6.35124,-28.7769 L 6.36293,-28.7611 L 6.37302,-28.7443
 L 6.46384,-28.5928 L 6.47224,-28.575 L 6.54775,-28.4154 L 6.60726,-28.249 L 6.61387,-28.2306 L 6.6568,-28.0592
 L 6.66156,-28.0402 L 6.68749,-27.8655 L 6.69037,-27.846 L 6.69133,-27.8264 L 6.7,-27.65 L 6.7,-15.75
 L 6.69133,-15.5736 L 6.69037,-15.554 L 6.68749,-15.5345 L 6.66156,-15.3598 L 6.6568,-15.3408 L 6.61387,-15.1694
 L 6.60726,-15.151 L 6.54775,-14.9846 L 6.47224,-14.825 L 6.46384,-14.8072 L 6.37302,-14.6557 L 6.36293,-14.6389
 L 6.35124,-14.6231 L 6.24602,-14.4812 L 6.1274,-14.3503 L 6.11421,-14.3358 L 6.09967,-14.3226 L 5.96878,-14.204
 L 5.82691,-14.0988 L 5.81114,-14.0871 L 5.79431,-14.077 L 5.64279,-13.9862 L 5.62504,-13.9778 L 5.46536,-13.9022
 L 5.29904,-13.8427 L 5.28056,-13.8361 L 5.10922,-13.7932 L 5.09018,-13.7884 L 4.91545,-13.7625 L 4.89604,-13.7596
 L 4.87643,-13.7587 L 4.7,-13.75 L 4.5,-13.75 L 4.5,-11.95 L 4.49904,-11.9304 L 4.49616,-11.911
 L 4.49139,-11.8919 L 4.48477,-11.8735 L 4.47638,-11.8557 L 4.46629,-11.8389 L 4.4546,-11.8231 L 4.44142,-11.8086
 L 4.42688,-11.7954 L 4.41111,-11.7837 L 4.39428,-11.7736 L 4.37654,-11.7652 L 4.35806,-11.7586 L 4.33902,-11.7538
 L 4.3196,-11.751 L 4.3,-11.75 L 1.7,-11.75 L 1.6804,-11.751 L 1.66098,-11.7538 L 1.64194,-11.7586
 L 1.62346,-11.7652 L 1.60572,-11.7736 L 1.58889,-11.7837 L 1.57312,-11.7954 L 1.55858,-11.8086 L 1.5454,-11.8231
 L 1.53371,-11.8389 L 1.52362,-11.8557 L 1.51523,-11.8735 L 1.50861,-11.8919 L 1.50384,-11.911 L 1.50096,-11.9304
 L 1.5,-11.95 L 1.5,-13.75 L 0,-13.75 L 0,-5 L 0.0106964,-4.67297 L 0.0427704,-4.34737
 L 0.0960693,-4.02454 L 0.170364,-3.7059 L 0.265335,-3.39279 L 0.3806,-3.08658 L 0.515625,-2.78854 L 0.669861,-2.5
 L 0.842651,-2.22214 L 1.03322,-1.95619 L 1.2408,-1.70326 L 1.46446,-1.46446 L 1.70326,-1.2408 L 1.95619,-1.03322
 L 2.22214,-0.842651 L 2.5,-0.669861 L 2.78854,-0.515625 L 3.08658,-0.3806 L 3.39279,-0.265335 L 3.7059,-0.170364
 L 4.02454,-0.0960693 L 4.34737,-0.0427704 L 4.67297,-0.0106964 L 5,-0 L 76.6185,-0 L 77.4425,-0.021225
 L 78.2644,-0.0848694 L 79.0818,-0.190765 L 79.8928,-0.338608 L 80.695,-0.52803 L 81.4865,-0.758514 L 82.265,-1.02945
 L 83.0285,-1.34012 L 83.775,-1.68971 L 84.5025,-2.07727 L 85.2091,-2.5018 L 85.8929,-2.96214 L 86.552,-3.45709
 L 87.1849,-3.98534 L 87.7896,-4.54549 L 88.3647,-5.13602 L 88.9086,-5.75539 L 89.42,-6.40196 L 89.8973,-7.07401
 L 90.3394,-7.76973 L 90.745,-8.4873 L 91.1132,-9.22482 L 91.4429,-9.98033 L 91.7333,-10.7518 L 105.622,-50.7518
 L 105.991,-51.9668 L 106.262,-53.2072 L 106.434,-54.4652 L 106.505,-55.7328 L 106.476,-57.0022 L 106.346,-58.2652
 L 106.117,-59.5139 L 105.789,-60.7405 L 105.365,-61.9373 L 104.847,-63.0967 L 104.24,-64.2114 L 103.545,-65.2744
 L 102.769,-66.279 L 101.915,-67.2188 L 100.99,-68.0881 L 99.9982,-68.8812 L 98.9469,-69.5931 L 97.8425,-70.2195
 L 96.692,-70.7564 L 95.5024,-71.2003 L 94.2814,-71.5485 L 93.0367,-71.7988 L 91.776,-71.9496 L 90.5074,-72
 z
M 90.5074,-67.15 L 93.3932,-66.7701 L 96.0824,-65.6562 L 98.3916,-63.8842 L 100.164,-61.575 L 101.277,-58.8858
 L 101.657,-56 L 101.277,-53.1142 L 100.164,-50.425 L 98.3916,-48.1158 L 96.0824,-46.3438 L 93.3932,-45.2299
 L 90.5074,-44.85 L 87.6215,-45.2299 L 84.9324,-46.3438 L 82.6231,-48.1158 L 80.8512,-50.425 L 79.7373,-53.1142
 L 79.3574,-56 L 79.7373,-58.8858 L 80.8512,-61.575 L 82.6231,-63.8842 L 84.9324,-65.6562 L 87.6215,-66.7701
 z
" stroke="black" fill="lightgray" stroke-width="0"/>
</svg>
