<?xml version="1.0" standalone="no"?>
<!DOCTYPE svg PUBLIC "-//W3C//DTD SVG 1.1//EN" "http://www.w3.org/Graphics/SVG/1.1/DTD/svg11.dtd">
<svg width="104mm" height="72mm" viewBox="0 -72 104 72" xmlns="http://www.w3.org/2000/svg" version="1.1">
<title>OpenSCAD Model</title>
<path d="
M 5,-72 L 4.6077,-71.9846 L 4.21782,-71.9384 L 3.83276,-71.8618 L 3.45491,-71.7553 L 3.08658,-71.6194
 L 2.73004,-71.455 L 2.3875,-71.2632 L 2.06107,-71.0451 L 1.75275,-70.802 L 1.46446,-70.5355 L 1.19797,-70.2472
 L 0.95491,-69.9389 L 0.736786,-69.6125 L 0.544952,-69.2699 L 0.3806,-68.9134 L 0.244705,-68.5451 L 0.138138,-68.1672
 L 0.061554,-67.7822 L 0.0154114,-67.3923 L 0,-67 L 0,-28.1 L 1.55,-28.1 L 1.55,-29.95
 L 1.55072,-29.9647 L 1.55288,-29.9793 L 1.55646,-29.9935 L 1.56142,-30.0074 L 1.56771,-30.0207 L 1.57528,-30.0333
 L 1.58405,-30.0452 L 1.59394,-30.0561 L 1.60484,-30.066 L 1.61667,-30.0747 L 1.62929,-30.0823 L 1.6426,-30.0886
 L 1.65646,-30.0935 L 1.67074,-30.0971 L 1.6853,-30.0993 L 1.7,-30.1 L 4.3,-30.1 L 4.3147,-30.0993
 L 4.32926,-30.0971 L 4.34354,-30.0935 L 4.3574,-30.0886 L 4.37071,-30.0823 L 4.38333,-30.0747 L 4.39516,-30.066
 L 4.40606,-30.0561 L 4.41595,-30.0452 L 4.42472,-30.0333 L 4.43229,-30.0207 L 4.43858,-30.0074 L 4.44354,-29.9935
 L 4.44712,-29.9793 L 4.44928,-29.9647 L 4.45,-29.95 L 4.45,-28.1 L 4.7,-28.1 L 4.7147,-28.0993
 L 4.89114,-28.0906 L 4.9057,-28.0885 L 5.08043,-28.0625 L 5.25177,-28.0196 L 5.26605,-28.016 L 5.43237,-27.9565
 L 5.44623,-27.9516 L 5.60591,-27.876 L 5.61922,-27.8697 L 5.77074,-27.7789 L 5.78336,-27.7714 L 5.79519,-27.7626
 L 5.93706,-27.6574 L 6.06795,-27.5387 L 6.07886,-27.5289 L 6.08875,-27.518 L 6.20737,-27.3871 L 6.31259,-27.2452
 L 6.32136,-27.2334 L 6.32893,-27.2207 L 6.41975,-27.0692 L 6.42604,-27.0559 L 6.50156,-26.8962 L 6.50652,-26.8824
 L 6.56603,-26.716 L 6.5696,-26.7018 L 6.61253,-26.5304 L 6.63845,-26.3557 L 6.64061,-26.3411 L 6.64928,-26.1647
 L 6.65,-26.15 L 6.65,-14.25 L 6.64928,-14.2353 L 6.64061,-14.0589 L 6.63845,-14.0443 L 6.61253,-13.8696
 L 6.5696,-13.6982 L 6.56603,-13.684 L 6.50652,-13.5176 L 6.50156,-13.5038 L 6.42604,-13.3441 L 6.41975,-13.3308
 L 6.32893,-13.1793 L 6.32136,-13.1666 L 6.31259,-13.1548 L 6.20737,-13.0129 L 6.08875,-12.882 L 6.07886,-12.8711
 L 6.06795,-12.8613 L 5.93706,-12.7426 L 5.79519,-12.6374 L 5.78336,-12.6286 L 5.77074,-12.6211 L 5.61922,-12.5303
 L 5.60591,-12.524 L 5.44623,-12.4484 L 5.43237,-12.4435 L 5.26605,-12.384 L 5.25177,-12.3804 L 5.08043,-12.3375
 L 4.9057,-12.3115 L 4.89114,-12.3094 L 4.7147,-12.3007 L 4.7,-12.3 L 4.45,-12.3 L 4.45,-10.45
 L 4.44928,-10.4353 L 4.44712,-10.4207 L 4.44354,-10.4065 L 4.43858,-10.3926 L 4.43229,-10.3793 L 4.42472,-10.3667
 L 4.41595,-10.3548 L 4.40606,-10.3439 L 4.39516,-10.334 L 4.38333,-10.3253 L 4.37071,-10.3177 L 4.3574,-10.3114
 L 4.34354,-10.3065 L 4.32926,-10.3029 L 4.3147,-10.3007 L 4.3,-10.3 L 1.7,-10.3 L 1.6853,-10.3007
 L 1.67074,-10.3029 L 1.65646,-10.3065 L 1.6426,-10.3114 L 1.62929,-10.3177 L 1.61667,-10.3253 L 1.60484,-10.334
 L 1.59394,-10.3439 L 1.58405,-10.3548 L 1.57528,-10.3667 L 1.56771,-10.3793 L 1.56142,-10.3926 L 1.55646,-10.4065
 L 1.55288,-10.4207 L 1.55072,-10.4353 L 1.55,-10.45 L 1.55,-12.3 L 0,-12.3 L 0,-5
 L 0.0154114,-4.6077 L 0.061554,-4.21782 L 0.138138,-3.83276 L 0.244705,-3.45491 L 0.3806,-3.08658 L 0.544952,-2.73004
 L 0.736786,-2.3875 L 0.95491,-2.06107 L 1.19797,-1.75275 L 1.46446,-1.46446 L 1.75275,-1.19797 L 2.06107,-0.95491
 L 2.3875,-0.736786 L 2.73004,-0.544952 L 3.08658,-0.3806 L 3.45491,-0.244705 L 3.83276,-0.138138 L 4.21782,-0.061554
 L 4.6077,-0.0154114 L 5,-0 L 76,-0 L 77.0289,-0.0331116 L 78.0535,-0.132324 L 79.0696,-0.297211
 L 80.0731,-0.527115 L 81.0596,-0.82106 L 82.0253,-1.17784 L 82.9659,-1.59598 L 83.8778,-2.07375 L 84.757,-2.60915
 L 85.6,-3.2 L 86.4032,-3.84383 L 87.1634,-4.53796 L 87.8774,-5.27956 L 88.5422,-6.06554 L 89.1551,-6.89264
 L 89.7135,-7.75743 L 90.2151,-8.65634 L 90.658,-9.58566 L 91.0401,-10.5415 L 91.36,-11.52 L 103.027,-51.52
 L 103.376,-52.9615 L 103.589,-54.4292 L 103.666,-55.9103 L 103.606,-57.3922 L 103.409,-58.8622 L 103.076,-60.3075
 L 102.611,-61.7159 L 102.017,-63.0751 L 101.301,-64.3735 L 100.467,-65.6 L 99.5227,-66.744 L 98.4769,-67.7957
 L 97.3383,-68.746 L 96.1165,-69.5868 L 94.8221,-70.3108 L 93.4662,-70.9119 L 92.0605,-71.3849 L 90.617,-71.7256
 L 89.1482,-71.9313 L 87.6667,-72 z
M 88.3333,-67.15 L 90.5086,-66.9358 L 92.6003,-66.3013 L 94.5279,-65.2709 L 96.2176,-63.8842 L 97.6042,-62.1946
 L 98.6346,-60.2669 L 99.2691,-58.1753 L 99.4833,-56 L 99.2691,-53.8247 L 98.6346,-51.7331 L 97.6042,-49.8054
 L 96.2176,-48.1158 L 94.5279,-46.7291 L 92.6003,-45.6987 L 90.5086,-45.0642 L 88.3333,-44.85 L 86.1581,-45.0642
 L 84.0664,-45.6987 L 82.1387,-46.7291 L 80.4491,-48.1158 L 79.0624,-49.8054 L 78.0321,-51.7331 L 77.3976,-53.8247
 L 77.1833,-56 L 77.3976,-58.1753 L 78.0321,-60.2669 L 79.0624,-62.1946 L 80.4491,-63.8842 L 82.1387,-65.2709
 L 84.0664,-66.3013 L 86.1581,-66.9358 z
" stroke="black" fill="lightgray" stroke-width="0"/>
</svg>
