<?xml version="1.0" standalone="no"?>
<!DOCTYPE svg PUBLIC "-//W3C//DTD SVG 1.1//EN" "http://www.w3.org/Graphics/SVG/1.1/DTD/svg11.dtd">
<svg width="107mm" height="72mm" viewBox="-107 -72 107 72" xmlns="http://www.w3.org/2000/svg" version="1.1">
<title>OpenSCAD Model</title>
<path d="
M -4.67297,-0.0106964 L -4.34737,-0.0427704 L -4.02454,-0.0960693 L -3.7059,-0.170364 L -3.39279,-0.265335 L -3.08658,-0.3806
 L -2.78854,-0.515625 L -2.5,-0.669861 L -2.22214,-0.842651 L -1.95619,-1.03322 L -1.70326,-1.2408 L -1.46446,-1.46446
 L -1.2408,-1.70326 L -1.03322,-1.95619 L -0.842651,-2.22214 L -0.669861,-2.5 L -0.515625,-2.78854 L -0.3806,-3.08658
 L -0.265335,-3.39279 L -0.170364,-3.7059 L -0.0960693,-4.02454 L -0.0427704,-4.34737 L -0.0106964,-4.67297 L 0,-5
 L 0,-67 L -0.0106964,-67.327 L -0.0427704,-67.6526 L -0.0960693,-67.9754 L -0.170364,-68.2941 L -0.265335,-68.6072
 L -0.3806,-68.9134 L -0.515625,-69.2114 L -0.669861,-69.5 L -0.842651,-69.7778 L -1.03322,-70.0438 L -1.2408,-70.2967
 L -1.46446,-70.5355 L -1.70326,-70.7592 L -1.95619,-70.9668 L -2.22214,-71.1573 L -2.5,-71.3301 L -2.78854,-71.4844
 L -3.08658,-71.6194 L -3.39279,-71.7346 L -3.7059,-71.8296 L -4.02454,-71.9039 L -4.34737,-71.9572 L -4.67297,-71.9893
 L -5,-72 L -90.5074,-72 L -91.776,-71.9496 L -93.0367,-71.7988 L -94.2814,-71.5485 L -95.5024,-71.2003
 L -96.692,-70.7564 L -97.8425,-70.2195 L -98.9469,-69.5931 L -99.9982,-68.8812 L -100.99,-68.0881 L -101.915,-67.2188
 L -102.769,-66.279 L -103.545,-65.2744 L -104.24,-64.2114 L -104.847,-63.0967 L -105.365,-61.9373 L -105.789,-60.7405
 L -106.117,-59.5139 L -106.346,-58.2652 L -106.476,-57.0022 L -106.505,-55.7328 L -106.434,-54.4652 L -106.262,-53.2072
 L -105.991,-51.9668 L -105.622,-50.7518 L -91.7333,-10.7518 L -91.4429,-9.98033 L -91.1132,-9.22482 L -90.745,-8.4873
 L -90.3394,-7.76973 L -89.8973,-7.07401 L -89.42,-6.40196 L -88.9086,-5.75539 L -88.3647,-5.13602 L -87.7896,-4.54549
 L -87.1849,-3.98534 L -86.552,-3.45709 L -85.8929,-2.96214 L -85.2091,-2.5018 L -84.5025,-2.07727 L -83.775,-1.68971
 L -83.0285,-1.34012 L -82.265,-1.02945 L -81.4865,-0.758514 L -80.695,-0.52803 L -79.8928,-0.338608 L -79.0818,-0.190765
 L -78.2644,-0.0848694 L -77.4425,-0.021225 L -76.6185,-0 L -5,-0 z
M -5.81702,-64.9062 L -6.12186,-64.9987 L -6.4028,-65.1488 L -6.64905,-65.3509 L -6.85114,-65.5972 L -7.0013,-65.8781
 L -7.09377,-66.183 L -7.125,-66.5 L -7.09377,-66.817 L -7.0013,-67.1219 L -6.85114,-67.4028 L -6.64905,-67.649
 L -6.4028,-67.8511 L -6.12186,-68.0013 L -5.81702,-68.0938 L -5.5,-68.125 L -5.18297,-68.0938 L -4.87813,-68.0013
 L -4.59718,-67.8511 L -4.35094,-67.649 L -4.14885,-67.4028 L -3.99869,-67.1219 L -3.90622,-66.817 L -3.875,-66.5
 L -3.90622,-66.183 L -3.99869,-65.8781 L -4.14885,-65.5972 L -4.35094,-65.3509 L -4.59718,-65.1488 L -4.87813,-64.9987
 L -5.18297,-64.9062 L -5.5,-64.875 z
M -77.817,-64.9062 L -78.1219,-64.9987 L -78.4028,-65.1488 L -78.649,-65.3509 L -78.8511,-65.5972 L -79.0013,-65.8781
 L -79.0938,-66.183 L -79.125,-66.5 L -79.0938,-66.817 L -79.0013,-67.1219 L -78.8511,-67.4028 L -78.649,-67.649
 L -78.4028,-67.8511 L -78.1219,-68.0013 L -77.817,-68.0938 L -77.5,-68.125 L -77.183,-68.0938 L -76.8781,-68.0013
 L -76.5972,-67.8511 L -76.3509,-67.649 L -76.1488,-67.4028 L -75.9987,-67.1219 L -75.9062,-66.817 L -75.875,-66.5
 L -75.9062,-66.183 L -75.9987,-65.8781 L -76.1488,-65.5972 L -76.3509,-65.3509 L -76.5972,-65.1488 L -76.8781,-64.9987
 L -77.183,-64.9062 L -77.5,-64.875 z
M -93.3932,-45.2299 L -96.0824,-46.3438 L -98.3916,-48.1158 L -100.164,-50.425 L -101.277,-53.1142 L -101.657,-56
 L -101.277,-58.8858 L -100.164,-61.575 L -98.3916,-63.8842 L -96.0824,-65.6562 L -93.3932,-66.7701 L -90.5074,-67.15
 L -87.6215,-66.7701 L -84.9324,-65.6562 L -82.6231,-63.8842 L -80.8512,-61.575 L -79.7373,-58.8858 L -79.3574,-56
 L -79.7373,-53.1142 L -80.8512,-50.425 L -82.6231,-48.1158 L -84.9324,-46.3438 L -87.6215,-45.2299 L -90.5074,-44.85
 z
M -97.6642,-39.6572 L -97.9691,-39.7497 L -98.25,-39.8999 L -98.4963,-40.102 L -98.6983,-40.3482 L -98.8485,-40.6292
 L -98.941,-40.934 L -98.9722,-41.251 L -98.941,-41.568 L -98.8485,-41.8729 L -98.6983,-42.1538 L -98.4963,-42.4001
 L -98.25,-42.6022 L -97.9691,-42.7523 L -97.6642,-42.8448 L -97.3472,-42.876 L -97.0302,-42.8448 L -96.7254,-42.7523
 L -96.4444,-42.6022 L -96.1982,-42.4001 L -95.9961,-42.1538 L -95.8459,-41.8729 L -95.7534,-41.568 L -95.7222,-41.251
 L -95.7534,-40.934 L -95.8459,-40.6292 L -95.9961,-40.3482 L -96.1982,-40.102 L -96.4444,-39.8999 L -96.7254,-39.7497
 L -97.0302,-39.6572 L -97.3472,-39.626 z
M -5.81702,-3.90622 L -6.12186,-3.99869 L -6.4028,-4.14885 L -6.64905,-4.35094 L -6.85114,-4.59718 L -7.0013,-4.87813
 L -7.09377,-5.18297 L -7.125,-5.5 L -7.09377,-5.81702 L -7.0013,-6.12186 L -6.85114,-6.4028 L -6.64905,-6.64905
 L -6.4028,-6.85114 L -6.12186,-7.0013 L -5.81702,-7.09377 L -5.5,-7.125 L -5.18297,-7.09377 L -4.87813,-7.0013
 L -4.59718,-6.85114 L -4.35094,-6.64905 L -4.14885,-6.4028 L -3.99869,-6.12186 L -3.90622,-5.81702 L -3.875,-5.5
 L -3.90622,-5.18297 L -3.99869,-4.87813 L -4.14885,-4.59718 L -4.35094,-4.35094 L -4.59718,-4.14885 L -4.87813,-3.99869
 L -5.18297,-3.90622 L -5.5,-3.875 z
M -77.817,-3.90622 L -78.1219,-3.99869 L -78.4028,-4.14885 L -78.649,-4.35094 L -78.8511,-4.59718 L -79.0013,-4.87813
 L -79.0938,-5.18297 L -79.125,-5.5 L -79.0938,-5.81702 L -79.0013,-6.12186 L -78.8511,-6.4028 L -78.649,-6.64905
 L -78.4028,-6.85114 L -78.1219,-7.0013 L -77.817,-7.09377 L -77.5,-7.125 L -77.183,-7.09377 L -76.8781,-7.0013
 L -76.5972,-6.85114 L -76.3509,-6.64905 L -76.1488,-6.4028 L -75.9987,-6.12186 L -75.9062,-5.81702 L -75.875,-5.5
 L -75.9062,-5.18297 L -75.9987,-4.87813 L -76.1488,-4.59718 L -76.3509,-4.35094 L -76.5972,-4.14885 L -76.8781,-3.99869
 L -77.183,-3.90622 L -77.5,-3.875 z
" stroke="black" fill="lightgray" stroke-width="0"/>
</svg>
