<?xml version="1.0" standalone="no"?>
<!DOCTYPE svg PUBLIC "-//W3C//DTD SVG 1.1//EN" "http://www.w3.org/Graphics/SVG/1.1/DTD/svg11.dtd">
<svg width="104mm" height="72mm" viewBox="-104 -72 104 72" xmlns="http://www.w3.org/2000/svg" version="1.1">
<title>OpenSCAD Model</title>
<path d="
M -4.6077,-0.0154114 L -4.21782,-0.061554 L -3.83276,-0.138138 L -3.45491,-0.244705 L -3.08658,-0.3806 L -2.73004,-0.544952
 L -2.3875,-0.736786 L -2.06107,-0.95491 L -1.75275,-1.19797 L -1.46446,-1.46446 L -1.19797,-1.75275 L -0.95491,-2.06107
 L -0.736786,-2.3875 L -0.544952,-2.73004 L -0.3806,-3.08658 L -0.244705,-3.45491 L -0.138138,-3.83276 L -0.061554,-4.21782
 L -0.0154114,-4.6077 L 0,-5 L 0,-67 L -0.0154114,-67.3923 L -0.061554,-67.7822 L -0.138138,-68.1672
 L -0.244705,-68.5451 L -0.3806,-68.9134 L -0.544952,-69.2699 L -0.736786,-69.6125 L -0.95491,-69.9389 L -1.19797,-70.2472
 L -1.46446,-70.5355 L -1.75275,-70.802 L -2.06107,-71.0451 L -2.3875,-71.2632 L -2.73004,-71.455 L -3.08658,-71.6194
 L -3.45491,-71.7553 L -3.83276,-71.8618 L -4.21782,-71.9384 L -4.6077,-71.9846 L -5,-72 L -87.6667,-72
 L -89.1482,-71.9313 L -90.617,-71.7256 L -92.0605,-71.3849 L -93.4662,-70.9119 L -94.8221,-70.3108 L -96.1165,-69.5868
 L -97.3383,-68.746 L -98.4769,-67.7957 L -99.5227,-66.744 L -100.467,-65.6 L -101.301,-64.3735 L -102.017,-63.0751
 L -102.611,-61.7159 L -103.076,-60.3075 L -103.409,-58.8622 L -103.606,-57.3922 L -103.666,-55.9103 L -103.589,-54.4292
 L -103.376,-52.9615 L -103.027,-51.52 L -91.36,-11.52 L -91.0401,-10.5415 L -90.658,-9.58566 L -90.2151,-8.65634
 L -89.7135,-7.75743 L -89.1551,-6.89264 L -88.5422,-6.06554 L -87.8774,-5.27956 L -87.1634,-4.53796 L -86.4032,-3.84383
 L -85.6,-3.2 L -84.757,-2.60915 L -83.8778,-2.07375 L -82.9659,-1.59598 L -82.0253,-1.17784 L -81.0596,-0.82106
 L -80.0731,-0.527115 L -79.0696,-0.297211 L -78.0535,-0.132324 L -77.0289,-0.0331116 L -76,-0 L -5,-0
 z
M -5.81213,-64.9307 L -6.11229,-65.0218 L -6.3889,-65.1696 L -6.63136,-65.3686 L -6.83034,-65.6111 L -6.9782,-65.8877
 L -7.06924,-66.1879 L -7.09999,-66.5 L -7.06924,-66.8121 L -6.9782,-67.1123 L -6.83034,-67.3889 L -6.63136,-67.6314
 L -6.3889,-67.8303 L -6.11229,-67.9782 L -5.81213,-68.0692 L -5.5,-68.1 L -5.18785,-68.0692 L -4.8877,-67.9782
 L -4.61108,-67.8303 L -4.36862,-67.6314 L -4.16965,-67.3889 L -4.02179,-67.1123 L -3.93074,-66.8121 L -3.89999,-66.5
 L -3.93074,-66.1879 L -4.02179,-65.8877 L -4.16965,-65.6111 L -4.36862,-65.3686 L -4.61108,-65.1696 L -4.8877,-65.0218
 L -5.18785,-64.9307 L -5.5,-64.9 z
M -74.8121,-64.9307 L -75.1123,-65.0218 L -75.3889,-65.1696 L -75.6314,-65.3686 L -75.8303,-65.6111 L -75.9782,-65.8877
 L -76.0692,-66.1879 L -76.1,-66.5 L -76.0692,-66.8121 L -75.9782,-67.1123 L -75.8303,-67.3889 L -75.6314,-67.6314
 L -75.3889,-67.8303 L -75.1123,-67.9782 L -74.8121,-68.0692 L -74.5,-68.1 L -74.1879,-68.0692 L -73.8877,-67.9782
 L -73.6111,-67.8303 L -73.3686,-67.6314 L -73.1696,-67.3889 L -73.0218,-67.1123 L -72.9307,-66.8121 L -72.9,-66.5
 L -72.9307,-66.1879 L -73.0218,-65.8877 L -73.1696,-65.6111 L -73.3686,-65.3686 L -73.6111,-65.1696 L -73.8877,-65.0218
 L -74.1879,-64.9307 L -74.5,-64.9 z
M -90.5086,-45.0642 L -92.6003,-45.6987 L -94.5279,-46.7291 L -96.2176,-48.1158 L -97.6042,-49.8054 L -98.6346,-51.7331
 L -99.2691,-53.8247 L -99.4833,-56 L -99.2691,-58.1752 L -98.6346,-60.2669 L -97.6042,-62.1946 L -96.2176,-63.8842
 L -94.5279,-65.2709 L -92.6003,-66.3013 L -90.5086,-66.9357 L -88.3333,-67.15 L -86.1581,-66.9357 L -84.0664,-66.3013
 L -82.1387,-65.2709 L -80.4491,-63.8842 L -79.0624,-62.1946 L -78.0321,-60.2669 L -77.3976,-58.1752 L -77.1833,-56
 L -77.3976,-53.8247 L -78.0321,-51.7331 L -79.0624,-49.8054 L -80.4491,-48.1158 L -82.1387,-46.7291 L -84.0664,-45.6987
 L -86.1581,-45.0642 L -88.3333,-44.85 z
M -96.1038,-39.9307 L -96.4039,-40.0218 L -96.6806,-40.1696 L -96.923,-40.3686 L -97.122,-40.6111 L -97.2699,-40.8877
 L -97.3609,-41.1879 L -97.3917,-41.5 L -97.3609,-41.8121 L -97.2699,-42.1123 L -97.122,-42.3889 L -96.923,-42.6314
 L -96.6806,-42.8303 L -96.4039,-42.9782 L -96.1038,-43.0692 L -95.7917,-43.1 L -95.4795,-43.0692 L -95.1794,-42.9782
 L -94.9027,-42.8303 L -94.6603,-42.6314 L -94.4613,-42.3889 L -94.3134,-42.1123 L -94.2224,-41.8121 L -94.1917,-41.5
 L -94.2224,-41.1879 L -94.3134,-40.8877 L -94.4613,-40.6111 L -94.6603,-40.3686 L -94.9027,-40.1696 L -95.1794,-40.0218
 L -95.4795,-39.9307 L -95.7917,-39.9 z
M -5.81213,-3.93074 L -6.11229,-4.02179 L -6.3889,-4.16965 L -6.63136,-4.36862 L -6.83034,-4.61108 L -6.9782,-4.8877
 L -7.06924,-5.18785 L -7.09999,-5.5 L -7.06924,-5.81213 L -6.9782,-6.11229 L -6.83034,-6.3889 L -6.63136,-6.63136
 L -6.3889,-6.83034 L -6.11229,-6.9782 L -5.81213,-7.06924 L -5.5,-7.09999 L -5.18785,-7.06924 L -4.8877,-6.9782
 L -4.61108,-6.83034 L -4.36862,-6.63136 L -4.16965,-6.3889 L -4.02179,-6.11229 L -3.93074,-5.81213 L -3.89999,-5.5
 L -3.93074,-5.18785 L -4.02179,-4.8877 L -4.16965,-4.61108 L -4.36862,-4.36862 L -4.61108,-4.16965 L -4.8877,-4.02179
 L -5.18785,-3.93074 L -5.5,-3.89999 z
M -74.8121,-3.93074 L -75.1123,-4.02179 L -75.3889,-4.16965 L -75.6314,-4.36862 L -75.8303,-4.61108 L -75.9782,-4.8877
 L -76.0692,-5.18785 L -76.1,-5.5 L -76.0692,-5.81213 L -75.9782,-6.11229 L -75.8303,-6.3889 L -75.6314,-6.63136
 L -75.3889,-6.83034 L -75.1123,-6.9782 L -74.8121,-7.06924 L -74.5,-7.09999 L -74.1879,-7.06924 L -73.8877,-6.9782
 L -73.6111,-6.83034 L -73.3686,-6.63136 L -73.1696,-6.3889 L -73.0218,-6.11229 L -72.9307,-5.81213 L -72.9,-5.5
 L -72.9307,-5.18785 L -73.0218,-4.8877 L -73.1696,-4.61108 L -73.3686,-4.36862 L -73.6111,-4.16965 L -73.8877,-4.02179
 L -74.1879,-3.93074 L -74.5,-3.89999 z
" stroke="black" fill="lightgray" stroke-width="0"/>
</svg>
