<?xml version="1.0" encoding="UTF-8" standalone="no"?>
<svg
   xmlns:dc="http://purl.org/dc/elements/1.1/"
   xmlns:cc="http://creativecommons.org/ns#"
   xmlns:rdf="http://www.w3.org/1999/02/22-rdf-syntax-ns#"
   xmlns:svg="http://www.w3.org/2000/svg"
   xmlns="http://www.w3.org/2000/svg"
   xmlns:xlink="http://www.w3.org/1999/xlink"
   xmlns:sodipodi="http://sodipodi.sourceforge.net/DTD/sodipodi-0.dtd"
   xmlns:inkscape="http://www.inkscape.org/namespaces/inkscape"
   width="107.01358mm"
   height="70.999802mm"
   viewBox="0 0 107.01358 70.999801"
   version="1.1"
   id="svg2"
   sodipodi:version="0.32"
   inkscape:version="1.0.2 (e86c870879, 2021-01-15)"
   sodipodi:docname="obs-frame.svg"
   inkscape:output_extension="org.inkscape.output.svg.inkscape">
  <!-- Working space 10 10 287 200 -->
  <!-- Title block 147 153 287 200 -->
  <metadata
     id="metadata849">
    <rdf:RDF>
      <cc:Work
         rdf:about="">
        <dc:format>image/svg+xml</dc:format>
        <dc:type
           rdf:resource="http://purl.org/dc/dcmitype/StillImage" />
        <dc:title></dc:title>
      </cc:Work>
    </rdf:RDF>
  </metadata>
  <defs
     id="defs847">
    <inkscape:perspective
       sodipodi:type="inkscape:persp3d"
       inkscape:vp_x="0 : 9.849804 : 1"
       inkscape:vp_y="0 : 1000 : 0"
       inkscape:vp_z="419.99995 : 9.849804 : 1"
       inkscape:persp3d-origin="209.99998 : -39.6502 : 1"
       id="perspective3708" />
    <linearGradient
       x1="649.42902"
       y1="807.466"
       x2="655.35199"
       y2="485.909"
       id="defitem29"
       gradientUnits="userSpaceOnUse">
      <stop
         style="stop-color:#ffffff;stop-opacity:1.0000000;"
         offset="0.0000000"
         id="stop92" />
      <stop
         style="stop-color:#ffffff;stop-opacity:0.13756600;"
         offset="1.0000000"
         id="stop93" />
    </linearGradient>
    <radialGradient
       cx="1049.72"
       cy="345.56"
       r="1202.15"
       fx="1049.72"
       fy="345.56"
       id="defitem28"
       gradientUnits="userSpaceOnUse">
      <stop
         style="stop-color:#ffffff;stop-opacity:1.0000000;"
         offset="0.0000000"
         id="stop89" />
      <stop
         style="stop-color:#a8a8a8;stop-opacity:1.0000000;"
         offset="1.0000000"
         id="stop90" />
    </radialGradient>
    <linearGradient
       x1="287.5"
       y1="636.70697"
       x2="980"
       y2="636.70697"
       id="defitem30"
       gradientUnits="userSpaceOnUse">
      <stop
         style="stop-color:#464646;stop-opacity:1.0000000;"
         offset="0.0000000"
         id="stop95" />
      <stop
         style="stop-color:#c2c2c2;stop-opacity:1.0000000;"
         offset="1.0000000"
         id="stop96" />
    </linearGradient>
    <linearGradient
       x1="921.091"
       y1="403.18799"
       x2="985.98199"
       y2="317.44699"
       id="defitem27"
       gradientUnits="userSpaceOnUse">
      <stop
         style="stop-color:#7e7e7e;stop-opacity:1.0000000;"
         offset="0.0000000"
         id="stop86" />
      <stop
         style="stop-color:#e5e5e5;stop-opacity:1.0000000;"
         offset="1.0000000"
         id="stop87" />
    </linearGradient>
    <linearGradient
       x1="530.76099"
       y1="346.30399"
       x2="293.37"
       y2="360.27499"
       id="defitem26"
       gradientUnits="userSpaceOnUse">
      <stop
         style="stop-color:#5f5f5f;stop-opacity:1.0000000;"
         offset="0.0000000"
         id="stop83" />
      <stop
         style="stop-color:#e5e5e5;stop-opacity:1.0000000;"
         offset="1.0000000"
         id="stop84" />
    </linearGradient>
    <linearGradient
       x1="164.013"
       y1="412.91901"
       x2="308.75"
       y2="337.60999"
       id="defitem25"
       gradientUnits="userSpaceOnUse">
      <stop
         style="stop-color:#ffffff;stop-opacity:1.0000000;"
         offset="0.0000000"
         id="stop80" />
      <stop
         style="stop-color:#bfbfbf;stop-opacity:1.0000000;"
         offset="1.0000000"
         id="stop81" />
    </linearGradient>
    <linearGradient
       x1="1094.25"
       y1="270.854"
       x2="992.48901"
       y2="380.47198"
       id="defitem24"
       gradientUnits="userSpaceOnUse">
      <stop
         style="stop-color:#6a6a6a;stop-opacity:1.0000000;"
         offset="0.0000000"
         id="stop77" />
      <stop
         style="stop-color:#e6e6e6;stop-opacity:1.0000000;"
         offset="1.0000000"
         id="stop78" />
    </linearGradient>
    <linearGradient
       x1="1170.91"
       y1="476.465"
       x2="1049.84"
       y2="549.37799"
       id="defitem23"
       gradientUnits="userSpaceOnUse">
      <stop
         style="stop-color:#5f5f5f;stop-opacity:1.0000000;"
         offset="0.0000000"
         id="stop74" />
      <stop
         style="stop-color:#ebebeb;stop-opacity:1.0000000;"
         offset="1.0000000"
         id="stop75" />
    </linearGradient>
    <linearGradient
       x1="783.716"
       y1="105.486"
       x2="576.14899"
       y2="313.276"
       id="defitem22"
       gradientUnits="userSpaceOnUse">
      <stop
         style="stop-color:#5a5a5a;stop-opacity:1.0000000;"
         offset="0.0000000"
         id="stop71" />
      <stop
         style="stop-color:#c7c7c7;stop-opacity:1.0000000;"
         offset="1.0000000"
         id="stop72" />
    </linearGradient>
    <linearGradient
       x1="280.04401"
       y1="418.698"
       x2="128.05499"
       y2="484.716"
       id="defitem21"
       gradientUnits="userSpaceOnUse">
      <stop
         style="stop-color:#666666;stop-opacity:1.0000000;"
         offset="0.0000000"
         id="stop68" />
      <stop
         style="stop-color:#d8d8d8;stop-opacity:1.0000000;"
         offset="1.0000000"
         id="stop69" />
    </linearGradient>
    <linearGradient
       x1="129.687"
       y1="636.95398"
       x2="220"
       y2="584.40997"
       id="defitem20"
       gradientUnits="userSpaceOnUse">
      <stop
         style="stop-color:#ffffff;stop-opacity:1.0000000;"
         offset="0.0000000"
         id="stop65" />
      <stop
         style="stop-color:#bbbbbb;stop-opacity:1.0000000;"
         offset="1.0000000"
         id="stop66" />
    </linearGradient>
    <linearGradient
       x1="1048.72"
       y1="629.02802"
       x2="1127.98"
       y2="583.75299"
       id="defitem19"
       gradientUnits="userSpaceOnUse">
      <stop
         style="stop-color:#5e5e5e;stop-opacity:1.0000000;"
         offset="0.0000000"
         id="stop62" />
      <stop
         style="stop-color:#ededed;stop-opacity:1.0000000;"
         offset="1.0000000"
         id="stop63" />
    </linearGradient>
    <linearGradient
       x1="370.022"
       y1="387.27301"
       x2="581.32397"
       y2="291.97699"
       id="defitem18"
       gradientUnits="userSpaceOnUse">
      <stop
         style="stop-color:#636363;stop-opacity:1.0000000;"
         offset="0.0000000"
         id="stop59" />
      <stop
         style="stop-color:#d6d6d6;stop-opacity:1.0000000;"
         offset="1.0000000"
         id="stop60" />
    </linearGradient>
    <linearGradient
       x1="732.15601"
       y1="351.939"
       x2="909.59399"
       y2="351.939"
       id="defitem17"
       gradientUnits="userSpaceOnUse">
      <stop
         style="stop-color:#676767;stop-opacity:1.0000000;"
         offset="0.0000000"
         id="stop56" />
      <stop
         style="stop-color:#d3d3d3;stop-opacity:1.0000000;"
         offset="1.0000000"
         id="stop57" />
    </linearGradient>
    <linearGradient
       x1="1014.43"
       y1="494.71301"
       x2="1073.01"
       y2="494.71301"
       id="defitem16"
       gradientUnits="userSpaceOnUse">
      <stop
         style="stop-color:#666666;stop-opacity:1.0000000;"
         offset="0.0000000"
         id="stop53" />
      <stop
         style="stop-color:#dcdcdc;stop-opacity:1.0000000;"
         offset="1.0000000"
         id="stop54" />
    </linearGradient>
    <linearGradient
       x1="272.59201"
       y1="452.388"
       x2="193.27699"
       y2="516.37"
       id="defitem15"
       gradientUnits="userSpaceOnUse">
      <stop
         style="stop-color:#6e6e6e;stop-opacity:1.0000000;"
         offset="0.0000000"
         id="stop50" />
      <stop
         style="stop-color:#d8d8d8;stop-opacity:1.0000000;"
         offset="1.0000000"
         id="stop51" />
    </linearGradient>
    <radialGradient
       cx="1037.22"
       cy="211.088"
       r="1164.28"
       fx="1037.22"
       fy="211.088"
       id="defitem14"
       gradientUnits="userSpaceOnUse">
      <stop
         style="stop-color:#ffffff;stop-opacity:1.0000000;"
         offset="0.0000000"
         id="stop47" />
      <stop
         style="stop-color:#aaaaaa;stop-opacity:1.0000000;"
         offset="1.0000000"
         id="stop48" />
    </radialGradient>
    <linearGradient
       x1="342.64999"
       y1="732.12903"
       x2="379.241"
       y2="686.83002"
       id="defitem13"
       gradientUnits="userSpaceOnUse">
      <stop
         style="stop-color:#ffffff;stop-opacity:1.0000000;"
         offset="0.0000000"
         id="stop44" />
      <stop
         style="stop-color:#989898;stop-opacity:1.0000000;"
         offset="1.0000000"
         id="stop45" />
    </linearGradient>
    <radialGradient
       cx="632.78101"
       cy="484.409"
       r="540.27899"
       fx="632.78101"
       fy="484.409"
       id="defitem12"
       gradientUnits="userSpaceOnUse">
      <stop
         style="stop-color:#ffffff;stop-opacity:1.0000000;"
         offset="0.0000000"
         id="stop41" />
      <stop
         style="stop-color:#ededed;stop-opacity:1.0000000;"
         offset="1.0000000"
         id="stop42" />
    </radialGradient>
    <radialGradient
       inkscape:collect="always"
       xlink:href="#defitem12"
       id="radialGradient3901"
       gradientUnits="userSpaceOnUse"
       cx="632.78101"
       cy="484.409"
       fx="632.78101"
       fy="484.409"
       r="540.27899" />
    <linearGradient
       inkscape:collect="always"
       xlink:href="#defitem13"
       id="linearGradient3903"
       gradientUnits="userSpaceOnUse"
       x1="342.64999"
       y1="732.12903"
       x2="379.241"
       y2="686.83002" />
    <radialGradient
       inkscape:collect="always"
       xlink:href="#defitem14"
       id="radialGradient3905"
       gradientUnits="userSpaceOnUse"
       cx="1037.22"
       cy="211.088"
       fx="1037.22"
       fy="211.088"
       r="1164.28" />
    <linearGradient
       inkscape:collect="always"
       xlink:href="#defitem15"
       id="linearGradient3907"
       gradientUnits="userSpaceOnUse"
       x1="272.59201"
       y1="452.388"
       x2="193.27699"
       y2="516.37" />
    <linearGradient
       inkscape:collect="always"
       xlink:href="#defitem16"
       id="linearGradient3909"
       gradientUnits="userSpaceOnUse"
       x1="1014.43"
       y1="494.71301"
       x2="1073.01"
       y2="494.71301" />
    <linearGradient
       inkscape:collect="always"
       xlink:href="#defitem17"
       id="linearGradient3911"
       gradientUnits="userSpaceOnUse"
       x1="732.15601"
       y1="351.939"
       x2="909.59399"
       y2="351.939" />
    <linearGradient
       inkscape:collect="always"
       xlink:href="#defitem18"
       id="linearGradient3913"
       gradientUnits="userSpaceOnUse"
       x1="370.022"
       y1="387.27301"
       x2="581.32397"
       y2="291.97699" />
    <linearGradient
       inkscape:collect="always"
       xlink:href="#defitem19"
       id="linearGradient3915"
       gradientUnits="userSpaceOnUse"
       x1="1048.72"
       y1="629.02802"
       x2="1127.98"
       y2="583.75299" />
    <linearGradient
       inkscape:collect="always"
       xlink:href="#defitem20"
       id="linearGradient3917"
       gradientUnits="userSpaceOnUse"
       x1="129.687"
       y1="636.95398"
       x2="220"
       y2="584.40997" />
    <linearGradient
       inkscape:collect="always"
       xlink:href="#defitem21"
       id="linearGradient3919"
       gradientUnits="userSpaceOnUse"
       x1="280.04401"
       y1="418.698"
       x2="128.05499"
       y2="484.716" />
    <linearGradient
       inkscape:collect="always"
       xlink:href="#defitem22"
       id="linearGradient3921"
       gradientUnits="userSpaceOnUse"
       x1="783.716"
       y1="105.486"
       x2="576.14899"
       y2="313.276" />
    <linearGradient
       inkscape:collect="always"
       xlink:href="#defitem23"
       id="linearGradient3923"
       gradientUnits="userSpaceOnUse"
       x1="1170.91"
       y1="476.465"
       x2="1049.84"
       y2="549.37799" />
    <linearGradient
       inkscape:collect="always"
       xlink:href="#defitem24"
       id="linearGradient3925"
       gradientUnits="userSpaceOnUse"
       x1="1094.25"
       y1="270.854"
       x2="992.48901"
       y2="380.47198" />
    <linearGradient
       inkscape:collect="always"
       xlink:href="#defitem25"
       id="linearGradient3927"
       gradientUnits="userSpaceOnUse"
       x1="164.013"
       y1="412.91901"
       x2="308.75"
       y2="337.60999" />
    <linearGradient
       inkscape:collect="always"
       xlink:href="#defitem26"
       id="linearGradient3929"
       gradientUnits="userSpaceOnUse"
       x1="530.76099"
       y1="346.30399"
       x2="293.37"
       y2="360.27499" />
    <linearGradient
       inkscape:collect="always"
       xlink:href="#defitem27"
       id="linearGradient3931"
       gradientUnits="userSpaceOnUse"
       x1="921.091"
       y1="403.18799"
       x2="985.98199"
       y2="317.44699" />
    <linearGradient
       inkscape:collect="always"
       xlink:href="#defitem30"
       id="linearGradient3933"
       gradientUnits="userSpaceOnUse"
       gradientTransform="matrix(1,0,0,1.016038,0,-11.73855)"
       x1="287.5"
       y1="636.70697"
       x2="980"
       y2="636.70697" />
    <radialGradient
       inkscape:collect="always"
       xlink:href="#defitem28"
       id="radialGradient3935"
       gradientUnits="userSpaceOnUse"
       cx="1092.7045"
       cy="64.845284"
       fx="1089.4004"
       fy="64.844765"
       r="1202.15" />
    <linearGradient
       inkscape:collect="always"
       xlink:href="#defitem29"
       id="linearGradient3937"
       gradientUnits="userSpaceOnUse"
       x1="649.42902"
       y1="807.466"
       x2="655.35199"
       y2="485.909" />
    <inkscape:perspective
       id="perspective3947"
       inkscape:persp3d-origin="0.49999995 : -138.31687 : 1"
       inkscape:vp_z="0.9999999 : -138.1502 : 1"
       inkscape:vp_y="0 : 1000 : 0"
       inkscape:vp_x="0 : -138.1502 : 1"
       sodipodi:type="inkscape:persp3d" />
    <inkscape:perspective
       id="perspective3972"
       inkscape:persp3d-origin="0.49999995 : -138.31687 : 1"
       inkscape:vp_z="0.9999999 : -138.1502 : 1"
       inkscape:vp_y="0 : 1000 : 0"
       inkscape:vp_x="0 : -138.1502 : 1"
       sodipodi:type="inkscape:persp3d" />
    <inkscape:perspective
       id="perspective3997"
       inkscape:persp3d-origin="0.49999995 : -138.31687 : 1"
       inkscape:vp_z="0.9999999 : -138.1502 : 1"
       inkscape:vp_y="0 : 1000 : 0"
       inkscape:vp_x="0 : -138.1502 : 1"
       sodipodi:type="inkscape:persp3d" />
    <radialGradient
       inkscape:collect="always"
       xlink:href="#defitem12"
       id="radialGradient4283"
       gradientUnits="userSpaceOnUse"
       cx="632.78101"
       cy="484.409"
       fx="632.78101"
       fy="484.409"
       r="540.27899" />
    <linearGradient
       inkscape:collect="always"
       xlink:href="#defitem13"
       id="linearGradient4285"
       gradientUnits="userSpaceOnUse"
       x1="342.64999"
       y1="732.12903"
       x2="379.241"
       y2="686.83002" />
    <radialGradient
       inkscape:collect="always"
       xlink:href="#defitem14"
       id="radialGradient4287"
       gradientUnits="userSpaceOnUse"
       cx="1037.22"
       cy="211.088"
       fx="1037.22"
       fy="211.088"
       r="1164.28" />
    <linearGradient
       inkscape:collect="always"
       xlink:href="#defitem15"
       id="linearGradient4289"
       gradientUnits="userSpaceOnUse"
       x1="272.59201"
       y1="452.388"
       x2="193.27699"
       y2="516.37" />
    <linearGradient
       inkscape:collect="always"
       xlink:href="#defitem16"
       id="linearGradient4291"
       gradientUnits="userSpaceOnUse"
       x1="1014.43"
       y1="494.71301"
       x2="1073.01"
       y2="494.71301" />
    <linearGradient
       inkscape:collect="always"
       xlink:href="#defitem17"
       id="linearGradient4293"
       gradientUnits="userSpaceOnUse"
       x1="732.15601"
       y1="351.939"
       x2="909.59399"
       y2="351.939" />
    <linearGradient
       inkscape:collect="always"
       xlink:href="#defitem18"
       id="linearGradient4295"
       gradientUnits="userSpaceOnUse"
       x1="370.022"
       y1="387.27301"
       x2="581.32397"
       y2="291.97699" />
    <linearGradient
       inkscape:collect="always"
       xlink:href="#defitem19"
       id="linearGradient4297"
       gradientUnits="userSpaceOnUse"
       x1="1048.72"
       y1="629.02802"
       x2="1127.98"
       y2="583.75299" />
    <linearGradient
       inkscape:collect="always"
       xlink:href="#defitem20"
       id="linearGradient4299"
       gradientUnits="userSpaceOnUse"
       x1="129.687"
       y1="636.95398"
       x2="220"
       y2="584.40997" />
    <linearGradient
       inkscape:collect="always"
       xlink:href="#defitem21"
       id="linearGradient4301"
       gradientUnits="userSpaceOnUse"
       x1="280.04401"
       y1="418.698"
       x2="128.05499"
       y2="484.716" />
    <linearGradient
       inkscape:collect="always"
       xlink:href="#defitem22"
       id="linearGradient4303"
       gradientUnits="userSpaceOnUse"
       x1="783.716"
       y1="105.486"
       x2="576.14899"
       y2="313.276" />
    <linearGradient
       inkscape:collect="always"
       xlink:href="#defitem23"
       id="linearGradient4305"
       gradientUnits="userSpaceOnUse"
       x1="1170.91"
       y1="476.465"
       x2="1049.84"
       y2="549.37799" />
    <linearGradient
       inkscape:collect="always"
       xlink:href="#defitem24"
       id="linearGradient4307"
       gradientUnits="userSpaceOnUse"
       x1="1094.25"
       y1="270.854"
       x2="992.48901"
       y2="380.47198" />
    <linearGradient
       inkscape:collect="always"
       xlink:href="#defitem25"
       id="linearGradient4309"
       gradientUnits="userSpaceOnUse"
       x1="164.013"
       y1="412.91901"
       x2="308.75"
       y2="337.60999" />
    <linearGradient
       inkscape:collect="always"
       xlink:href="#defitem26"
       id="linearGradient4311"
       gradientUnits="userSpaceOnUse"
       x1="530.76099"
       y1="346.30399"
       x2="293.37"
       y2="360.27499" />
    <linearGradient
       inkscape:collect="always"
       xlink:href="#defitem27"
       id="linearGradient4313"
       gradientUnits="userSpaceOnUse"
       x1="921.091"
       y1="403.18799"
       x2="985.98199"
       y2="317.44699" />
    <linearGradient
       inkscape:collect="always"
       xlink:href="#defitem30"
       id="linearGradient4315"
       gradientUnits="userSpaceOnUse"
       gradientTransform="matrix(1,0,0,1.016038,0,-11.73855)"
       x1="287.5"
       y1="636.70697"
       x2="980"
       y2="636.70697" />
    <radialGradient
       inkscape:collect="always"
       xlink:href="#defitem28"
       id="radialGradient4317"
       gradientUnits="userSpaceOnUse"
       cx="1092.7045"
       cy="64.845284"
       fx="1089.4004"
       fy="64.844765"
       r="1202.15" />
    <linearGradient
       inkscape:collect="always"
       xlink:href="#defitem29"
       id="linearGradient4319"
       gradientUnits="userSpaceOnUse"
       x1="649.42902"
       y1="807.466"
       x2="655.35199"
       y2="485.909" />
    <radialGradient
       inkscape:collect="always"
       xlink:href="#defitem12"
       id="radialGradient4515"
       gradientUnits="userSpaceOnUse"
       cx="632.78101"
       cy="484.409"
       fx="632.78101"
       fy="484.409"
       r="540.27899" />
    <linearGradient
       inkscape:collect="always"
       xlink:href="#defitem13"
       id="linearGradient4517"
       gradientUnits="userSpaceOnUse"
       x1="342.64999"
       y1="732.12903"
       x2="379.241"
       y2="686.83002" />
    <radialGradient
       inkscape:collect="always"
       xlink:href="#defitem14"
       id="radialGradient4519"
       gradientUnits="userSpaceOnUse"
       cx="1037.22"
       cy="211.088"
       fx="1037.22"
       fy="211.088"
       r="1164.28" />
    <linearGradient
       inkscape:collect="always"
       xlink:href="#defitem15"
       id="linearGradient4521"
       gradientUnits="userSpaceOnUse"
       x1="272.59201"
       y1="452.388"
       x2="193.27699"
       y2="516.37" />
    <linearGradient
       inkscape:collect="always"
       xlink:href="#defitem16"
       id="linearGradient4523"
       gradientUnits="userSpaceOnUse"
       x1="1014.43"
       y1="494.71301"
       x2="1073.01"
       y2="494.71301" />
    <linearGradient
       inkscape:collect="always"
       xlink:href="#defitem17"
       id="linearGradient4525"
       gradientUnits="userSpaceOnUse"
       x1="732.15601"
       y1="351.939"
       x2="909.59399"
       y2="351.939" />
    <linearGradient
       inkscape:collect="always"
       xlink:href="#defitem18"
       id="linearGradient4527"
       gradientUnits="userSpaceOnUse"
       x1="370.022"
       y1="387.27301"
       x2="581.32397"
       y2="291.97699" />
    <linearGradient
       inkscape:collect="always"
       xlink:href="#defitem19"
       id="linearGradient4529"
       gradientUnits="userSpaceOnUse"
       x1="1048.72"
       y1="629.02802"
       x2="1127.98"
       y2="583.75299" />
    <linearGradient
       inkscape:collect="always"
       xlink:href="#defitem20"
       id="linearGradient4531"
       gradientUnits="userSpaceOnUse"
       x1="129.687"
       y1="636.95398"
       x2="220"
       y2="584.40997" />
    <linearGradient
       inkscape:collect="always"
       xlink:href="#defitem21"
       id="linearGradient4533"
       gradientUnits="userSpaceOnUse"
       x1="280.04401"
       y1="418.698"
       x2="128.05499"
       y2="484.716" />
    <linearGradient
       inkscape:collect="always"
       xlink:href="#defitem22"
       id="linearGradient4535"
       gradientUnits="userSpaceOnUse"
       x1="783.716"
       y1="105.486"
       x2="576.14899"
       y2="313.276" />
    <linearGradient
       inkscape:collect="always"
       xlink:href="#defitem23"
       id="linearGradient4537"
       gradientUnits="userSpaceOnUse"
       x1="1170.91"
       y1="476.465"
       x2="1049.84"
       y2="549.37799" />
    <linearGradient
       inkscape:collect="always"
       xlink:href="#defitem24"
       id="linearGradient4539"
       gradientUnits="userSpaceOnUse"
       x1="1094.25"
       y1="270.854"
       x2="992.48901"
       y2="380.47198" />
    <linearGradient
       inkscape:collect="always"
       xlink:href="#defitem25"
       id="linearGradient4541"
       gradientUnits="userSpaceOnUse"
       x1="164.013"
       y1="412.91901"
       x2="308.75"
       y2="337.60999" />
    <linearGradient
       inkscape:collect="always"
       xlink:href="#defitem26"
       id="linearGradient4543"
       gradientUnits="userSpaceOnUse"
       x1="530.76099"
       y1="346.30399"
       x2="293.37"
       y2="360.27499" />
    <linearGradient
       inkscape:collect="always"
       xlink:href="#defitem27"
       id="linearGradient4545"
       gradientUnits="userSpaceOnUse"
       x1="921.091"
       y1="403.18799"
       x2="985.98199"
       y2="317.44699" />
    <linearGradient
       inkscape:collect="always"
       xlink:href="#defitem30"
       id="linearGradient4547"
       gradientUnits="userSpaceOnUse"
       gradientTransform="matrix(1,0,0,1.016038,0,-11.73855)"
       x1="287.5"
       y1="636.70697"
       x2="980"
       y2="636.70697" />
    <radialGradient
       inkscape:collect="always"
       xlink:href="#defitem28"
       id="radialGradient4549"
       gradientUnits="userSpaceOnUse"
       cx="1092.7045"
       cy="64.845284"
       fx="1089.4004"
       fy="64.844765"
       r="1202.15" />
    <linearGradient
       inkscape:collect="always"
       xlink:href="#defitem29"
       id="linearGradient4551"
       gradientUnits="userSpaceOnUse"
       x1="649.42902"
       y1="807.466"
       x2="655.35199"
       y2="485.909" />
    <linearGradient
       id="linearGradient3682">
      <stop
         id="stop3684"
         offset="0"
         style="stop-color:#ff6d0f;stop-opacity:1;" />
      <stop
         id="stop3686"
         offset="1"
         style="stop-color:#ff1000;stop-opacity:1;" />
    </linearGradient>
    <linearGradient
       id="linearGradient3864">
      <stop
         style="stop-color:#71b2f8;stop-opacity:1;"
         offset="0"
         id="stop3866" />
      <stop
         style="stop-color:#002795;stop-opacity:1;"
         offset="1"
         id="stop3868" />
    </linearGradient>
  </defs>
  <sodipodi:namedview
     inkscape:window-height="1024"
     inkscape:window-width="1912"
     inkscape:pageshadow="2"
     inkscape:pageopacity="0.0"
     guidetolerance="10.0"
     gridtolerance="10.0"
     objecttolerance="10.0"
     borderopacity="1.0"
     bordercolor="#666666"
     pagecolor="#ffffff"
     id="base"
     inkscape:window-x="4"
     inkscape:window-y="1106"
     inkscape:current-layer="g1529"
     inkscape:document-units="mm"
     showgrid="false"
     units="px"
     inkscape:window-maximized="1"
     inkscape:zoom="2.1741564"
     inkscape:cx="198.85305"
     inkscape:cy="156.85404"
     inkscape:document-rotation="0"
     fit-margin-top="0"
     fit-margin-left="0"
     fit-margin-right="0"
     fit-margin-bottom="0" />
  <g
     id="View"
     transform="rotate(180,53.756855,-0.25009155)">
    <g
       fill="none"
       stroke="#000000"
       stroke-linecap="butt"
       stroke-linejoin="miter"
       stroke-width="0.35"
       transform="scale(1,-1)"
       id="g1529">
      <path
         id="path10"
         style="fill:#1c1c19;fill-opacity:1;fill-rule:nonzero;stroke:none;stroke-width:0.663191"
         d="m 46.387815,2.8876015 c 2.789263,0 4.834277,2.6532523 4.834277,8.5820855 v 3.070547 c 0,5.87576 -2.045014,8.582578 -4.834277,8.582578 -2.782032,0 -4.8269,-2.706818 -4.8269,-8.582578 v -3.070547 c 0,-5.9288332 2.044868,-8.5820855 4.8269,-8.5820855 z m -6.69097,0.2877253 V 22.834594 H 36.748277 V 16.20068 h -1.669301 c -2.83984,0 -4.631638,-2.281856 -4.631638,-6.6412931 0,-4.3897553 1.806248,-6.3840601 4.631638,-6.3840601 z m -10.499762,0 V 22.834594 H 21.458009 V 18.899889 H 26.25589 V 14.631225 H 21.992638 V 10.696518 H 26.25589 V 7.1105253 H 21.458009 V 3.1753268 Z m -9.24951,0 V 22.834594 H 17.180001 V 11.947261 L 12.671318,22.834594 H 10.286395 V 3.1753268 h 2.774951 V 14.199388 L 17.606423,3.1753268 Z M 72.87134,5.9276536 V 19.172858 H 69.171731 V 14.494984 H 54.040327 v -3.88208 H 69.171731 V 5.9276536 Z M 46.387815,6.8223077 c -1.221201,0 -1.878822,1.4251888 -1.878822,4.6473793 v 3.070547 c 0,3.222191 0.657621,4.647871 1.878822,4.647871 1.228434,0 1.886199,-1.42568 1.886199,-4.647871 v -3.070547 c 0,-3.2221905 -0.657765,-4.6473793 -1.886199,-4.6473793 z m -9.639538,0.2882176 h -1.13418 c -1.546377,0 -2.21868,0.8491445 -2.21868,2.4488616 0,1.9636411 0.672303,2.7065871 2.21868,2.7065871 h 1.13418 z M 72.849698,26.170735 v 19.658773 h -4.674925 c -3.266184,0 -4.581471,-2.501606 -4.581471,-5.640401 0,-2.418539 0.679104,-3.813939 1.799144,-4.700988 -0.852678,-0.909796 -1.40174,-2.077142 -1.40174,-4.10144 0,-3.593692 1.683672,-5.215944 4.574095,-5.215944 z m -11.027014,0 v 19.658773 h -2.94808 V 26.170735 Z m -5.260211,0 v 19.658773 h -2.94857 v -5.208566 l -1.06188,-2.342627 -2.645104,7.551193 h -3.519104 l 4.263746,-11.70575 -3.620423,-7.953023 h 3.425163 l 3.157602,7.293468 v -7.293468 z m -11.504097,0.0073 v 19.651398 h -7.746452 v -3.927327 h 4.798374 v -4.276015 h -4.263746 v -3.926836 h 4.263746 v -3.593861 h -4.798374 v -3.927331 z m -31.028601,2.850694 v 4.662628 h 21.237086 v 3.927328 H 14.029775 v 4.662628 H 10.293773 V 29.028804 Z m 55.871844,1.04614 h -0.975806 c -1.618637,0 -1.994404,0.690309 -1.994406,1.850297 0,1.144828 0.535039,1.743567 1.727337,1.743567 h 1.242875 z m 0,7.521193 h -1.192217 c -1.488571,0 -2.168021,0.545883 -2.168021,2.138019 0,1.455673 0.643355,2.168025 1.958498,2.168025 h 1.40174 z M 68.68776,48.885226 c 2.984366,0 4.313915,2.418377 4.313915,5.670895 0,3.161538 -1.069581,4.981277 -3.548121,6.262577 -1.81374,0.940117 -2.312132,1.516222 -2.312132,2.653467 0,0.940122 0.447764,1.713565 1.582244,1.713565 1.098363,0 1.850084,-0.545845 2.449848,-1.774062 l 2.203926,2.478864 c -1.156169,2.335146 -2.666497,3.222034 -4.906578,3.222034 -2.782035,0 -4.27801,-2.304757 -4.278011,-5.868123 0,-3.366243 1.01155,-4.95812 3.677967,-6.186343 1.546378,-0.712674 2.182287,-1.364904 2.182287,-2.532474 0,-0.993194 -0.426199,-1.713564 -1.401739,-1.713564 -1.098362,0 -1.705369,0.493125 -2.182287,1.797178 l -2.182286,-2.50936 c 0.867126,-2.160765 2.449933,-3.214654 4.400967,-3.214654 z m -31.289273,0 c 2.984365,0 4.314404,2.418377 4.314404,5.670895 0,3.161538 -1.06973,4.981277 -3.555498,6.262577 -1.806518,0.940117 -2.305244,1.516222 -2.305244,2.653467 0,0.940122 0.441016,1.713565 1.582734,1.713565 1.098362,0 1.842706,-0.545845 2.442469,-1.774062 l 2.203927,2.478864 c -1.148948,2.335146 -2.659122,3.222034 -4.8992,3.222034 -2.789263,0 -4.278012,-2.304757 -4.278012,-5.868123 0,-3.366243 1.011551,-4.95812 3.677968,-6.186343 1.53915,-0.712674 2.182287,-1.364904 2.182287,-2.532474 0,-0.993194 -0.4262,-1.713564 -1.401741,-1.713564 -1.105588,0 -1.705514,0.493125 -2.189662,1.797178 l -2.182285,-2.50936 c 0.874347,-2.160765 2.449585,-3.214654 4.407853,-3.214654 z m -10.658136,0 c 2.789263,0 4.834279,2.645874 4.834279,8.574707 v 3.077923 c 0,5.868184 -2.045016,8.57471 -4.834279,8.57471 -2.789258,0 -4.826901,-2.706526 -4.826901,-8.57471 v -3.077923 c 0,-5.928833 2.037643,-8.574707 4.826901,-8.574707 z m 35.855502,0.280347 v 19.659248 h -7.74596 V 64.89749 h 4.797882 v -4.276039 h -4.263254 v -3.934706 h 4.263254 v -3.586486 h -4.797882 v -3.934706 z m -9.256395,0 V 68.824867 H 50.571882 V 57.944913 L 46.06271,68.824867 H 43.685162 V 49.165648 h 2.767575 v 11.031441 l 4.54557,-11.031441 z m -33.290565,0.0074 v 19.651891 h -2.948079 v -7.430121 h -1.524699 l -2.045064,7.430202 h -3.229903 l 2.449357,-8.256519 c -1.242886,-0.917375 -1.951123,-2.653847 -1.951123,-5.216438 0,-4.101661 1.806742,-6.178964 4.632132,-6.178964 z m 6.691458,3.639113 c -1.228426,0 -1.878822,1.42568 -1.878822,4.64787 v 3.077923 c 0,3.214616 0.650396,4.647874 1.878822,4.647874 1.228435,0 1.878823,-1.433258 1.878823,-4.647874 v -3.077923 c 0,-3.22219 -0.650388,-4.64787 -1.878823,-4.64787 z m -9.639537,0.288216 h -1.315176 c -1.192306,0 -2.045063,0.371371 -2.045063,2.251634 0,1.849922 0.852757,2.10802 2.045063,2.10802 h 1.315176 z" />
    </g>
  </g>
</svg>
