<?xml version="1.0" encoding="UTF-8" standalone="no"?>
<svg
   width="104mm"
   height="72mm"
   viewBox="-104 -72 104 72"
   version="1.1"
   id="svg6"
   sodipodi:docname="MainCaseLid.svg"
   inkscape:version="1.1.1 (3bf5ae0d25, 2021-09-20, custom)"
   xmlns:inkscape="http://www.inkscape.org/namespaces/inkscape"
   xmlns:sodipodi="http://sodipodi.sourceforge.net/DTD/sodipodi-0.dtd"
   xmlns="http://www.w3.org/2000/svg"
   xmlns:svg="http://www.w3.org/2000/svg"
   xmlns:rdf="http://www.w3.org/1999/02/22-rdf-syntax-ns#"
   xmlns:cc="http://creativecommons.org/ns#"
   xmlns:dc="http://purl.org/dc/elements/1.1/">
  <defs
     id="defs10" />
  <sodipodi:namedview
     id="namedview8"
     pagecolor="#505050"
     bordercolor="#ffffff"
     borderopacity="1"
     inkscape:pageshadow="0"
     inkscape:pageopacity="0"
     inkscape:pagecheckerboard="1"
     inkscape:document-units="mm"
     showgrid="false"
     inkscape:zoom="2.3364792"
     inkscape:cx="204.15333"
     inkscape:cy="180.18564"
     inkscape:window-width="1912"
     inkscape:window-height="1024"
     inkscape:window-x="4"
     inkscape:window-y="26"
     inkscape:window-maximized="1"
     inkscape:current-layer="svg6" />
  <title
     id="title2">OpenSCAD Model</title>
  <metadata
     id="metadata896">
    <rdf:RDF>
      <cc:Work
         rdf:about="">
        <dc:title>OpenSCAD Model</dc:title>
      </cc:Work>
    </rdf:RDF>
  </metadata>
  <path
     id="polygon977"
     d="m -44.470668,-66.999991 c -2.727148,0 -4.765418,2.470727 -4.765418,8.030175 v 2.870705 c 0,5.486778 2.020089,8.030175 4.765418,8.030175 2.727148,0 4.744092,-2.543397 4.744092,-8.030175 v -2.870705 c 0,-5.559448 -2.016944,-8.030175 -4.744092,-8.030175 z m 6.544446,0.25551 v 18.402332 h 2.908249 v -6.213357 h 1.636998 c 2.799871,0 4.545246,-2.125537 4.545246,-6.213364 0,-4.087832 -1.818099,-5.975611 -4.545246,-5.975611 z m 10.343982,0 v 18.402332 h 7.599088 v -3.669115 h -4.708603 v -4.01331 h 4.183045 v -3.672658 h -4.183045 v -3.360396 h 4.708603 v -3.686853 z m 9.090494,0 v 18.402332 h 2.727147 V -58.51559 l 4.417417,10.173441 h 2.3471832 v -18.402332 h -2.7271482 v 10.336678 l -4.456469,-10.336678 z m -52.014676,2.579736 v 12.408977 h 3.636198 v -4.396546 h 14.871482 v -3.633629 h -14.871482 v -4.378802 z m 26.035754,0.833891 c 1.181764,0 1.818099,1.345151 1.818099,4.361059 v 2.870704 c 0,3.015908 -0.636317,4.343323 -1.818099,4.343323 -1.181782,0 -1.818099,-1.327415 -1.818099,-4.343323 v -2.870704 c 0,-3.015908 0.636299,-4.361059 1.818099,-4.361059 z m 9.452695,0.273226 h 1.107894 c 1.527203,0 2.183846,0.798967 2.183846,2.288758 0,1.816811 -0.656643,2.544249 -2.183846,2.544249 h -1.107894 z m -24.61891,17.841673 v 18.405883 h 2.894049 v -18.405883 z m 5.166673,0 v 18.405883 h 2.890485 v -4.868495 l 1.054643,-2.200048 2.599318,7.068543 h 3.455096 l -4.200808,-10.957654 3.561637,-7.448229 h -3.362773 l -3.107113,6.83079 v -6.83079 z m 11.3063,0 v 18.405883 h 7.599089 v -3.67266 h -4.708603 v -4.013316 h 4.183045 v -3.669108 h -4.183045 v -3.363947 h 4.708603 v -3.686852 z m -27.32475,0.01785 v 18.388139 h 4.563011 c 3.199852,0 4.491975,-2.343974 4.491975,-5.287212 a 5.0179522,5.0144043 0 0 0 -1.72932,-4.378802 4.9452282,4.9417319 0 0 0 1.381318,-3.832337 c 0,-3.361103 -1.652196,-4.889788 -4.488431,-4.889788 z m 57.813411,2.654253 v 4.378802 h -20.869083 v 3.66911 h 20.869083 v 4.361065 h 3.6752502 v -12.409039 z m -54.905161,0.979314 h 0.944556 c 1.599927,0 1.963692,0.654053 1.963692,1.816811 0,1.162758 -0.526685,1.618096 -1.690268,1.618096 h -1.21798 z m 0,7.050799 h 1.16471 c 1.472659,0 2.127048,0.507998 2.127048,1.997782 0,1.489785 -0.61959,2.03327 -1.910421,2.03327 h -1.381337 z m 1.043988,10.556672 c -2.831707,0.06949 -4.097831,2.318142 -4.097831,5.322699 a 5.7270106,5.7229615 0 0 0 3.490605,5.776896 c 1.818116,0.89024 2.272622,1.415555 2.272622,2.487474 a 1.4362979,1.4352824 0 0 1 -1.562419,1.6003591 2.5453381,2.5435384 0 0 1 -2.400454,-1.6535901 L -71,-8.0244652 a 4.9088663,4.9053955 0 0 0 4.818671,3.016196 c 2.727148,0 4.200808,-2.1620066 4.200808,-5.4504398 a 5.34521,5.3414308 0 0 0 -3.618452,-5.833677 c -1.509022,-0.67225 -2.144775,-1.290931 -2.144775,-2.38102 0,-1.090088 0.417707,-1.596808 1.381318,-1.596808 0.963593,0 1.672087,0.454094 2.144793,1.671326 l 2.144792,-2.345533 a 4.5088846,4.5056967 0 0 0 -4.325092,-3.012646 c -0.04581,0 -0.09363,-0.0011 -0.138539,0 z m 30.691069,0 c -2.849052,0.06949 -4.11914,2.318142 -4.11914,5.322699 a 5.7270106,5.7229615 0 0 0 3.565183,5.776896 c 1.818099,0.89024 2.272623,1.415555 2.272623,2.487474 a 1.4362979,1.4352824 0 0 1 -1.544675,1.6003591 2.5635191,2.5617066 0 0 1 -2.418216,-1.6535901 l -2.166083,2.3242464 a 4.9270471,4.9235636 0 0 0 4.818671,3.016196 c 2.745329,0 4.218552,-2.1620065 4.218552,-5.4504394 a 5.34521,5.3414308 0 0 0 -3.618435,-5.759161 c -1.527202,-0.672249 -2.144792,-1.290931 -2.144792,-2.38102 0,-1.090088 0.417708,-1.596808 1.381318,-1.596808 0.963593,0 1.672088,0.454094 2.144793,1.671326 l 2.073778,-2.345533 a 4.5270655,4.5238648 0 0 0 -4.328638,-3.012646 c -0.046,0 -0.08981,-0.0011 -0.134903,0 z m 10.553498,0 c -2.679204,0.07671 -4.61628,2.575478 -4.61628,8.030175 v 2.888448 c 0,5.4504396 1.998782,8.0301748 4.744111,8.0301748 2.74531,0 4.69084,-2.5433966 4.69084,-8.0301748 v -2.888448 c 0,-5.541279 -1.963692,-8.030175 -4.69084,-8.030175 -0.04291,0 -0.08527,-0.0013 -0.127813,0 z m -35.108484,0.269655 v 18.4058817 h 7.602634 v -3.6868526 h -4.712148 v -3.9991221 h 4.183045 v -3.669109 h -4.183045 v -3.360396 h 4.712148 v -3.690403 z m 9.090493,0 v 18.4058817 h 2.727148 V -15.472712 l 4.420961,10.1911857 h 2.343638 V -23.687409 h -2.727147 v 10.318934 l -4.470668,-10.318934 z m 32.654762,0 v 18.4058817 h 2.890485 v -6.9585377 h 1.491403 l 2.016964,6.9585377 h 3.1816722 L -11.38269,-13.020729 a 5.5997438,5.5957846 0 0 0 1.8180992,-4.868494 c 0,-3.85164 -1.8176812,-5.79819 -4.5630112,-5.79819 z m -6.50894,3.41717 c 1.181764,0 1.818098,1.327415 1.818098,4.343323 v 2.870704 c 0,3.015908 -0.636316,4.3397721 -1.818098,4.3397721 -1.181782,0 -1.818099,-1.3238641 -1.818099,-4.3397721 v -2.870704 c 0,-3.015908 0.636298,-4.343323 1.818099,-4.343323 z m 9.399425,0.273226 h 1.292559 c 1.163584,0 1.999199,0.345463 1.999199,2.107787 0,1.76231 -0.728239,1.962303 -1.928185,1.962303 h -0.07109 -1.292559 z"
     style="stroke-width:0.264584" />
</svg>
