<?xml version="1.0" encoding="UTF-8" standalone="no"?>
<svg
   width="107mm"
   height="72mm"
   viewBox="0 -72 107 72"
   version="1.1"
   id="svg1284"
   sodipodi:docname="MainCase.svg"
   inkscape:version="1.1.2 (0a00cf5339, 2022-02-04)"
   xmlns:inkscape="http://www.inkscape.org/namespaces/inkscape"
   xmlns:sodipodi="http://sodipodi.sourceforge.net/DTD/sodipodi-0.dtd"
   xmlns="http://www.w3.org/2000/svg"
   xmlns:svg="http://www.w3.org/2000/svg"
   xmlns:rdf="http://www.w3.org/1999/02/22-rdf-syntax-ns#"
   xmlns:cc="http://creativecommons.org/ns#"
   xmlns:dc="http://purl.org/dc/elements/1.1/">
  <defs
     id="defs1288" />
  <sodipodi:namedview
     id="namedview1286"
     pagecolor="#ffffff"
     bordercolor="#666666"
     borderopacity="1.0"
     inkscape:pageshadow="2"
     inkscape:pageopacity="0.0"
     inkscape:pagecheckerboard="0"
     inkscape:document-units="mm"
     showgrid="false"
     inkscape:zoom="3.0785631"
     inkscape:cx="202.20472"
     inkscape:cy="136.10246"
     inkscape:window-width="3840"
     inkscape:window-height="2091"
     inkscape:window-x="0"
     inkscape:window-y="32"
     inkscape:window-maximized="1"
     inkscape:current-layer="svg1284" />
  <title
     id="title1280">OpenSCAD Model</title>
  <metadata
     id="metadata1290">
    <rdf:RDF>
      <cc:Work
         rdf:about="">
        <dc:title>OpenSCAD Model</dc:title>
      </cc:Work>
    </rdf:RDF>
  </metadata>
  <path
     id="polygon977"
     d="m 38.585283,-67.081804 c -2.734345,0 -4.777994,2.477247 -4.777994,8.051366 v 2.87828 c 0,5.501257 2.025421,8.051366 4.777994,8.051366 2.734344,0 4.756611,-2.550109 4.756611,-8.051366 v -2.87828 c 0,-5.574119 -2.022267,-8.051366 -4.756611,-8.051366 z m 6.561715,0.256184 v 18.450894 h 2.915924 v -6.229753 h 1.641319 c 2.807259,0 4.55724,-2.131145 4.55724,-6.22976 0,-4.09862 -1.822896,-5.991381 -4.55724,-5.991381 z m 10.371279,0 v 18.450894 h 7.619103 v -3.678797 h -4.721003 v -4.0239 h 4.194066 v -3.682351 h -4.194066 v -3.369262 h 4.721003 v -3.696584 z m 9.114434,0 v 18.450894 h 2.734335 v -10.200288 l 4.429046,10.200288 h 2.353365 V -66.82562 h -2.734332 v 10.363957 L 66.946929,-66.82562 Z m -52.151888,2.586544 v 12.441723 h 3.645794 v -4.408148 h 14.910727 v -3.643218 H 16.126617 v -4.390357 z m 26.10446,0.836092 c 1.184882,0 1.822897,1.348701 1.822897,4.372567 v 2.87828 c 0,3.023866 -0.637996,4.354784 -1.822897,4.354784 -1.184901,0 -1.822897,-1.330918 -1.822897,-4.354784 v -2.87828 c 0,-3.023866 0.637978,-4.372567 1.822897,-4.372567 z m 9.477639,0.273948 h 1.110817 c 1.531234,0 2.189609,0.801074 2.189609,2.294797 0,1.821605 -0.658375,2.550963 -2.189609,2.550963 h -1.110817 z m -24.683877,17.888754 v 18.454454 h 2.901687 v -18.454454 z m 5.180309,0 v 18.454454 h 2.898111 v -4.881342 l 1.057428,-2.205853 2.606176,7.087195 h 3.464214 l -4.211894,-10.986571 3.571036,-7.467883 h -3.371647 l -3.115313,6.848815 v -6.848815 z m 11.336134,0 v 18.454454 h 7.619143 v -3.682352 h -4.721028 v -4.023907 h 4.194084 v -3.678789 h -4.194084 v -3.372826 h 4.721028 v -3.69658 z m -27.396856,0.0179 v 18.436663 h 4.575052 c 3.208297,0 4.503829,-2.35016 4.503829,-5.301164 a 5.0311939,5.0276367 0 0 0 -1.733884,-4.390356 4.9582781,4.9547726 0 0 0 1.384964,-3.842451 c 0,-3.369974 -1.656556,-4.902692 -4.500275,-4.902692 z m 57.965896,2.661257 v 4.390356 H 49.540451 v 3.678794 h 20.924077 v 4.372573 h 3.684929 v -12.441787 z m -55.049971,0.981898 h 0.947048 c 1.60415,0 1.968874,0.655779 1.968874,1.821606 0,1.165826 -0.528074,1.622367 -1.694728,1.622367 h -1.221194 z m 0,7.069406 h 1.167783 c 1.476545,0 2.132661,0.509339 2.132661,2.003052 0,1.493719 -0.621224,2.038638 -1.915462,2.038638 h -1.384982 z m 1.046743,10.584529 c -2.83918,0.06967 -4.108646,2.324259 -4.108646,5.336745 a 5.7421235,5.7380637 0 0 0 3.499818,5.79214 c 1.822913,0.892591 2.278619,1.419292 2.278619,2.49404 a 1.4400881,1.4390699 0 0 1 -1.566543,1.6045801 2.5520549,2.5502505 0 0 1 -2.406788,-1.6579521 l -2.171818,2.4050928 a 4.9218202,4.9183402 0 0 0 4.831388,3.0241532 c 2.734344,0 4.211893,-2.1677108 4.211893,-5.46482 a 5.3593154,5.3555262 0 0 0 -3.628,-5.849071 c -1.513004,-0.674024 -2.150436,-1.294338 -2.150436,-2.387304 0,-1.092964 0.418811,-1.601021 1.384964,-1.601021 0.966136,0 1.6765,0.455291 2.150452,1.675736 l 2.150452,-2.351723 a 4.5207831,4.5175867 0 0 0 -4.336504,-3.020596 c -0.04593,0 -0.09388,-0.001 -0.138905,0 z m 30.772058,0 c -2.856569,0.06967 -4.130009,2.324259 -4.130009,5.336745 a 5.7421235,5.7380637 0 0 0 3.574591,5.79214 c 1.822897,0.892591 2.278621,1.419292 2.278621,2.49404 a 1.4400881,1.4390699 0 0 1 -1.548752,1.6045801 2.5702839,2.5684666 0 0 1 -2.424596,-1.6579521 l -2.171801,2.3303778 a 4.9400489,4.9365563 0 0 0 4.831388,3.0241545 c 2.752574,0 4.229683,-2.1677108 4.229683,-5.4648193 A 5.3593154,5.3555262 0 0 0 48.2445,-16.240385 c -1.531232,-0.674023 -2.150452,-1.294338 -2.150452,-2.387304 0,-1.092964 0.418811,-1.601021 1.384964,-1.601021 0.966135,0 1.676501,0.455291 2.150452,1.675736 l 2.079251,-2.351723 a 4.5390119,4.5358028 0 0 0 -4.340061,-3.020596 c -0.04613,0 -0.09005,-0.001 -0.135259,0 z m 10.581342,0 c -2.686267,0.07691 -4.628455,2.582274 -4.628455,8.051367 v 2.89607 c 0,5.4648195 2.004055,8.051362 4.756625,8.051362 2.752535,0 4.703193,-2.5501065 4.703193,-8.051362 v -2.89607 c 0,-5.555903 -1.968868,-8.051367 -4.703193,-8.051367 -0.043,0 -0.0855,-0.0013 -0.12815,0 z m -35.201124,0.270368 v 18.4544493 h 7.622695 v -3.6965809 h -4.724583 v -4.0096734 h 4.194085 v -3.678791 h -4.194085 v -3.369266 h 4.724583 v -3.700139 z m 9.114482,0 v 18.4544493 h 2.734344 V -15.41855 l 4.432627,10.2180763 h 2.349824 V -23.654924 h -2.734345 v 10.346164 l -4.482465,-10.346164 z m 32.740896,0 v 18.4544493 h 2.898092 v -6.9769013 h 1.495331 l 2.022271,6.9768983 h 3.190049 l -2.314205,-7.7596193 a 5.6145209,5.6105512 0 0 0 1.822888,-4.881341 c 0,-3.861804 -1.822468,-5.81349 -4.575023,-5.81349 z m -6.526084,3.426186 c 1.184874,0 1.822891,1.330919 1.822891,4.354785 v 2.878279 c 0,3.023867 -0.637997,4.3512241 -1.822891,4.3512241 -1.184894,0 -1.822892,-1.3273571 -1.822892,-4.3512241 v -2.878279 c 0,-3.023866 0.637978,-4.354785 1.822892,-4.354785 z m 9.424176,0.273948 h 1.295964 c 1.166644,0 2.004458,0.346375 2.004458,2.113349 0,1.766961 -0.730157,1.967482 -1.933258,1.967482 h -0.0713 -1.295964 z"
     style="stroke-width:0.265282" />
</svg>
